<svg id="Calque_2" data-name="Calque 2" xmlns="http://www.w3.org/2000/svg" width="26" height="22" viewBox="0 0 26 22"><defs><style>.cls-1{fill:#3360a5;}</style></defs><title>contrib</title><path class="cls-1" d="M25.23,2.7C24.68.53,22.71.45,20.81.28A77.76,77.76,0,0,0,12,.07C9.46.13,6.81.12,4.55,1.55.88,3.87.56,7.89.5,11.82c0,2.53-1.21,6.33,6.36,6.33C6.71,19.42,4.81,22,4.81,22c1.19-.37,3.61-2.63,4.55-3.24,2-1.34,5.87-.57,8.17-.51,2.51.06,2.92,0,5-1.6,1.86-1.4,2.2-3.77,2.53-5.93C25.49,8,25.9,5.38,25.23,2.7Z"/></svg>