<?xml version="1.0" encoding="UTF-8"?>
<svg width="22" height="22" xmlns="http://www.w3.org/2000/svg" xmlns:svg="http://www.w3.org/2000/svg">
 <defs>
  <style type="text/css">.st0{fill:#ffffff;}</style>
 </defs>
 <title>dislike-entity-node</title>
 <g>
  <title>Layer 1</title>
  <g id="svg_1">
   <path id="svg_2" d="m3.486,13.48414c1.327,0.037001 2.655,-0.02 3.974,-0.174c-0.443,1.794001 -1.022,4.281 -1.234,5.438c-0.348,1.929001 2.276,2.488001 2.835,1.062c0.559,-1.429001 2.275001,-6.306999 5.479001,-7.193001l0.327,-0.116999l0,-9.799001c-3.267,-0.69 -6.581,-1.132999 -9.915001,-1.313c-1.832,0 -3.066999,0.33 -3.259,2.063c-0.252,2.355 -0.541,5.289001 -0.676,7.024001c-0.135,2.198999 0.522,2.893 2.469,3.008999z" class="st0"/>
   <path id="svg_3" d="m17.277,13.232141l2.681999,0c0.575001,0 1.041,-0.466002 1.041,-1.041c0,-0.006001 0,-0.013 0,-0.019001l0,-9.202999c0,-0.573 -0.466,-1.04 -1.041,-1.04l0,0l-2.681999,0c-0.575001,0 -1.042,0.467 -1.042,1.04l0,9.204c0,0.578999 0.462999,1.049999 1.042,1.059z" class="st0"/>
  </g>
 </g>
</svg>