<svg id="Layer_1" xmlns="http://www.w3.org/2000/svg" width="24" height="24" viewBox="0 0 24 24">
	 <defs>
		<style type="text/css">
			.st0{fill:#034EA2;}
			.st1{fill:#FFFFFF;}
		</style>
	</defs>
	<title>dislike-entity-comment</title>
<circle class="st0" cx="11.375" cy="11.5" r="11"/>
<g>
	<path class="st1" d="M7.243,13.867c0.73,0.021,1.461-0.012,2.186-0.096c-0.243,0.986-0.562,2.354-0.679,2.991
		c-0.191,1.061,1.251,1.368,1.559,0.583s1.251-3.469,3.014-3.955l0.18-0.064V7.937c-1.797-0.38-3.619-0.623-5.453-0.723
		c-1.008,0-1.688,0.182-1.793,1.135c-0.139,1.295-0.298,2.909-0.372,3.863C5.811,13.422,6.172,13.803,7.243,13.867z"/>
	<path class="st1" d="M14.827,13.729h1.475c0.316,0,0.573-0.256,0.573-0.572c0-0.003,0-0.007,0-0.011V8.084
		c0-0.315-0.256-0.571-0.573-0.571l0,0h-1.475c-0.316,0-0.573,0.256-0.573,0.571v5.061C14.254,13.465,14.51,13.724,14.827,13.729z"
		/>
</g>
</svg>
