<svg id="Calque_1" data-name="Calque 1" xmlns="http://www.w3.org/2000/svg" viewBox="0 0 18 18"><title>external-link</title><path d="M13.57,10.43a.28.28,0,0,0-.29-.29h-.57a.28.28,0,0,0-.29.29v2.86A1.43,1.43,0,0,1,11,14.71H3.57a1.43,1.43,0,0,1-1.43-1.43V5.86A1.43,1.43,0,0,1,3.57,4.43H9.86a.28.28,0,0,0,.29-.29V3.57a.28.28,0,0,0-.29-.29H3.57A2.57,2.57,0,0,0,1,5.86v7.43a2.57,2.57,0,0,0,2.57,2.57H11a2.57,2.57,0,0,0,2.57-2.57ZM17,2.72a.58.58,0,0,0-.57-.57H11.86a.58.58,0,0,0-.57.57.57.57,0,0,0,.17.4L13,4.69,7.21,10.51a.28.28,0,0,0,0,.41l1,1a.28.28,0,0,0,.41,0l5.82-5.82L16,7.69a.57.57,0,0,0,.4.17A.58.58,0,0,0,17,7.29Z" style="fill:#2362be"/></svg>