<?xml version="1.0" encoding="UTF-8"?>
<svg width="22" height="22" xmlns="http://www.w3.org/2000/svg" xmlns:svg="http://www.w3.org/2000/svg">
 <defs>
  <style type="text/css">.st0{fill:#ffffff;}</style>
 </defs>
 <g>
  <title>Layer 1</title>
  <g id="svg_1">
   <path id="svg_2" d="m18.514999,8.514141c-1.327,-0.037001 -2.655001,0.02 -3.974001,0.174c0.443001,-1.794001 1.022001,-4.282001 1.234001,-5.439c0.348,-1.929 -2.276001,-2.488 -2.835001,-1.061c-0.559,1.427999 -2.275,6.307 -5.479,7.193l-0.327,0.117l0,9.799c3.267,0.690001 6.580999,1.133001 9.915001,1.313c1.831999,0 3.066999,-0.33 3.258999,-2.063c0.252001,-2.355 0.541,-5.288 0.676001,-7.022999c0.134001,-2.200001 -0.521999,-2.894001 -2.469,-3.01z" class="st0"/>
   <path id="svg_3" d="m4.723,8.765141l-2.681,0c-0.575,0 -1.042,0.466001 -1.042,1.041c0,0.006001 0,0.013 0,0.018999l0,9.203001c0,0.573 0.466,1.039999 1.042,1.039999l0,0l2.682,0c0.575,0 1.042,-0.466999 1.042,-1.039999l0,-9.203001c-0.000999,-0.579 -0.464,-1.049999 -1.043,-1.059999z" class="st0"/>
  </g>
 </g>
</svg>