<svg id="Layer_1" xmlns="http://www.w3.org/2000/svg" width="24" height="24" viewBox="0 0 24 24">
<defs><style type="text/css">
	.st0{fill:#198380;}
	.st1{fill:#FFFFFF;}
</style></defs>
<circle class="st0" cx="11.375" cy="11.5" r="11"/>
<g>
	<path class="st1" d="M15.508,9.133c-0.73-0.021-1.461,0.012-2.186,0.096c0.243-0.986,0.562-2.354,0.679-2.991
		c0.191-1.061-1.252-1.368-1.56-0.583c-0.308,0.785-1.251,3.469-3.013,3.955l-0.18,0.064v5.39c1.796,0.38,3.619,0.623,5.453,0.723
		c1.008,0,1.688-0.182,1.793-1.135c0.139-1.296,0.298-2.908,0.372-3.863C16.939,9.578,16.578,9.197,15.508,9.133z"/>
	<path class="st1" d="M7.923,9.271H6.448c-0.316,0-0.573,0.256-0.573,0.572c0,0.003,0,0.007,0,0.011v5.062
		c0,0.315,0.256,0.571,0.573,0.571l0,0h1.475c0.316,0,0.573-0.256,0.573-0.571V9.854C8.496,9.535,8.241,9.276,7.923,9.271z"/>
</g>
</svg>
