<svg xmlns="http://www.w3.org/2000/svg" width="26.88" height="26.844" viewBox="0 0 26.88 26.844">
  <defs>
    <style>
      .cls-1 {
        fill: #2362be;
        fill-rule: evenodd;
      }
    </style>
  </defs>
  <path class="cls-1" d="M1521.56,682.2l-0.16-.162-6.48-6.476a10.633,10.633,0,0,0-9.14-15.977h-0.07a10.643,10.643,0,0,0-.06,21.285h0.07a10.618,10.618,0,0,0,5.36-1.449l6.46,6.469h0.01l0.16,0.162a1.251,1.251,0,0,0,1.77,0l2.08-2.08A1.252,1.252,0,0,0,1521.56,682.2Zm-10.26-6.348a7.861,7.861,0,0,1-5.58,2.3h-0.05a7.933,7.933,0,0,1-7.88-7.98,7.926,7.926,0,0,1,7.92-7.877h0.06A7.928,7.928,0,0,1,1511.3,675.85Z" transform="translate(-1495.06 -659.594)"/>
</svg>
