<svg id="Layer_1" data-name="Layer 1" xmlns="http://www.w3.org/2000/svg" width="15" height="12" viewBox="0 0 15 12"><defs><style>.cls-1{fill:#198380;}</style></defs><title>picto-home</title><path class="cls-1" d="M12.7,7.5v3.7a.65.65,0,0,1-.6.6h-3a.27.27,0,0,1-.3-.3V8.6a.27.27,0,0,0-.3-.3H6.6a.27.27,0,0,0-.3.3v2.9a.27.27,0,0,1-.3.3H3a.65.65,0,0,1-.6-.6V7.5c0-.1,0-.2.1-.2l4.9-4a.3.3,0,0,1,.4,0l4.9,4v.2Zm2.2-1.6L12.7,4.1V.5a.27.27,0,0,0-.3-.3H10.9a.27.27,0,0,0-.3.3V2.4L8.3.5A1.22,1.22,0,0,0,6.7.5L.1,5.9a.3.3,0,0,0,0,.4l.7.8c.1.1.3.2.4,0l6.1-5a.3.3,0,0,1,.4,0l6.1,5a.3.3,0,0,0,.4,0l.7-.8A.3.3,0,0,0,14.9,5.9Z"/></svg>
