<svg id="Layer_1" data-name="Layer 1" xmlns="http://www.w3.org/2000/svg" width="40" height="24" viewBox="0 0 40 24"><defs><style>.cls-1{fill:#fff;}.cls-2{fill:#fff;}.cls-3{fill:#2362be;}</style></defs><title>vote</title><path class="cls-1" d="M28.57,1.57a10.41,10.41,0,0,0-8.16,3.94,11.08,11.08,0,0,1,0,13A10.43,10.43,0,1,0,28.57,1.57Z"/><circle class="cls-2" cx="11.43" cy="12" r="10.43"/><path class="cls-3" d="M15.33,10.2a14.37,14.37,0,0,0-2.06.09c.23-.93.53-2.22.64-2.82.18-1-1.18-1.29-1.47-.55s-1.18,3.27-2.84,3.73l-.17.06v5.08a33.55,33.55,0,0,0,5.14.68c.95,0,1.59-.17,1.69-1.07.13-1.22.28-2.74.35-3.64C16.68,10.62,16.34,10.26,15.33,10.2Z"/><path class="cls-3" d="M8.18,10.33H6.79a.54.54,0,0,0-.54.55v4.77a.54.54,0,0,0,.54.54H8.18a.54.54,0,0,0,.54-.54V10.88A.55.55,0,0,0,8.18,10.33Z"/><path class="cls-3" d="M25.8,14.56a16.22,16.22,0,0,0,2.07-.09c-.23.93-.54,2.21-.65,2.82-.17.95,1.18,1.28,1.47.54s1.18-3.26,2.84-3.72A.84.84,0,0,0,31.7,14V9a33.81,33.81,0,0,0-5.13-.67c-.95,0-1.6.16-1.7,1.07-.13,1.21-.28,2.74-.35,3.63C24.45,14.13,24.8,14.49,25.8,14.56Z"/><path class="cls-3" d="M33,14.42h1.39a.54.54,0,0,0,.55-.54V9.11a.54.54,0,0,0-.55-.55H33a.54.54,0,0,0-.54.55v4.77A.54.54,0,0,0,33,14.42Z"/></svg>
