<?xml version="1.0" standalone="no"?>
<!DOCTYPE svg PUBLIC "-//W3C//DTD SVG 20010904//EN"
 "http://www.w3.org/TR/2001/REC-SVG-20010904/DTD/svg10.dtd">
<svg version="1.0" xmlns="http://www.w3.org/2000/svg"
 width="200.000000pt" height="200.000000pt" viewBox="0 0 200.000000 200.000000"
 preserveAspectRatio="xMidYMid meet">
<metadata>
Created by potrace 1.11, written by Peter Selinger 2001-2013
</metadata>
<g transform="translate(0.000000,200.000000) scale(0.100000,-0.100000)"
fill="#000000" stroke="none">
<path d="M0 1000 l0 -1000 365 0 c347 1 365 2 375 20 11 20 15 1936 4 1964 -5
14 -48 16 -375 16 l-369 0 0 -1000z"/>
<path d="M1284 1960 c40 -45 40 -45 25 -88 -12 -35 -24 -40 -93 -40 -63 0 -77
-14 -46 -47 13 -14 33 -25 44 -25 22 -1 136 -101 136 -120 0 -16 38 -12 48 6
10 18 32 11 32 -10 0 -7 -13 -25 -30 -41 -36 -35 -37 -50 -5 -140 49 -139 60
-195 58 -304 -2 -118 -2 -120 88 -251 95 -140 98 -160 30 -181 -23 -7 -48 -21
-58 -31 -16 -18 -16 -22 -1 -65 l17 -46 -31 -29 -31 -29 22 -22 c28 -31 27
-40 -10 -76 -24 -25 -29 -35 -22 -53 15 -43 7 -107 -18 -134 -32 -34 -91 -49
-143 -35 -54 14 -157 32 -227 38 -108 10 -181 -53 -267 -229 -2 -5 267 -8 597
-8 l601 0 0 1000 0 1000 -376 0 -376 0 36 -40z"/>
<path d="M1290 1223 c-84 -15 -173 -54 -158 -69 4 -3 35 -1 70 4 100 15 160
-1 106 -29 -13 -6 -42 -27 -65 -45 -23 -19 -49 -34 -58 -34 -34 0 -10 -35 33
-48 44 -15 53 -26 26 -36 -24 -9 -6 -26 29 -26 53 0 77 24 77 75 0 34 5 47 20
55 11 6 20 17 20 26 0 8 10 28 21 44 12 16 19 36 16 44 -10 26 -87 48 -137 39z"/>
</g>
</svg>
